<svg width="24" height="24" viewBox="0 0 24 24" fill="none" xmlns="http://www.w3.org/2000/svg">
<path d="M15 15C15 12.1716 15 10.7574 14.1213 9.87868C13.2426 9 11.8284 9 9 9H8C5.1716 9 3.7574 9 2.8787 9.87868C2 10.7574 2 12.1716 2 15V16C2 18.8284 2 20.2426 2.8787 21.1213C3.7574 22 5.1716 22 8 22H9C11.8284 22 13.2426 22 14.1213 21.1213C15 20.2426 15 18.8284 15 16V15Z" stroke="#E0E0E0" stroke-width="1.5" stroke-linecap="round" stroke-linejoin="round"/>
<path d="M7.0001 9C7.0025 6.04291 7.0472 4.51121 7.908 3.46243C8.0742 3.25989 8.2599 3.07418 8.4624 2.90796C9.5688 2 11.2125 2 14.5 2C17.7875 2 19.4312 2 20.5376 2.90796C20.7401 3.07417 20.9258 3.25989 21.092 3.46243C22 4.56878 22 6.21252 22 9.5C22 12.7875 22 14.4312 21.092 15.5376C20.9258 15.7401 20.7401 15.9258 20.5376 16.092C19.4888 16.9528 17.9571 16.9975 15 16.9999" stroke="#E0E0E0" stroke-width="1.5" stroke-linecap="round" stroke-linejoin="round"/>
</svg>
