<svg width="35" height="35" viewBox="0 0 35 35" fill="none" xmlns="http://www.w3.org/2000/svg">
<path d="M22.6055 25.8853L24.4917 28.4672C24.6687 28.7475 25.009 28.8727 25.3196 28.7617C26.4918 28.343 29.3972 27.2083 31.7895 25.4806C31.976 25.3458 32.0838 25.1212 32.0823 24.8897C32.0823 12.0311 28.4388 8.38525 28.4388 8.38525C28.4388 8.38525 25.5222 6.71127 22.3924 6.20653C22.0846 6.15686 21.783 6.32184 21.646 6.6045L20.9971 7.94304C20.9971 7.94304 19.3745 7.60354 17.5002 7.60354C15.6258 7.60354 14.0032 7.94304 14.0032 7.94304L13.3543 6.6045C13.2172 6.32184 12.9158 6.15686 12.6079 6.20653C9.48047 6.7109 6.5638 8.38525 6.5638 8.38525C6.5638 8.38525 2.91798 12.0311 2.91798 24.8897C2.91653 25.1212 3.02422 25.3458 3.2108 25.4806C5.60301 27.2083 8.5085 28.343 9.68066 28.7617C9.99127 28.8727 10.3315 28.7475 10.5086 28.4672L12.3971 25.8853" stroke="#E0E0E0" stroke-width="2" stroke-linecap="round" stroke-linejoin="round"/>
<path d="M25.5221 24.4272C25.5221 24.4272 22.1751 26.6147 17.5013 26.6147C12.8275 26.6147 9.48047 24.4272 9.48047 24.4272" stroke="#E0E0E0" stroke-width="2.5" stroke-linecap="round" stroke-linejoin="round"/>
<path d="M25.1579 17.8644C25.1579 19.4753 24.0153 20.7811 22.6058 20.7811C21.1963 20.7811 20.0537 19.4753 20.0537 17.8644C20.0537 16.2535 21.1963 14.9478 22.6058 14.9478C24.0153 14.9478 25.1579 16.2535 25.1579 17.8644Z" stroke="#E0E0E0" stroke-width="2"/>
<path d="M14.9494 17.8644C14.9494 19.4753 13.8068 20.7811 12.3973 20.7811C10.9878 20.7811 9.84521 19.4753 9.84521 17.8644C9.84521 16.2535 10.9878 14.9478 12.3973 14.9478C13.8068 14.9478 14.9494 16.2535 14.9494 17.8644Z" stroke="#E0E0E0" stroke-width="2"/>
</svg>
