<svg width="30" height="30" viewBox="0 0 30 30" fill="none" xmlns="http://www.w3.org/2000/svg">
<path d="M3.125 15C3.125 9.40207 3.125 6.60311 4.86405 4.86405C6.60311 3.125 9.40207 3.125 15 3.125C20.5979 3.125 23.3969 3.125 25.136 4.86405C26.875 6.60311 26.875 9.40207 26.875 15C26.875 20.5979 26.875 23.3969 25.136 25.136C23.3969 26.875 20.5979 26.875 15 26.875C9.40207 26.875 6.60311 26.875 4.86405 25.136C3.125 23.3969 3.125 20.5979 3.125 15Z" stroke="#121212" stroke-width="1.5" stroke-linecap="round" stroke-linejoin="round"/>
<path d="M20 15.625C20 15.625 16.3176 20.625 15 20.625C13.6823 20.625 10 15.625 10 15.625M15 20V9.375" stroke="#121212" stroke-width="1.5" stroke-linecap="round" stroke-linejoin="round"/>
</svg>
