<svg width="30" height="30" viewBox="0 0 30 30" fill="none" xmlns="http://www.w3.org/2000/svg">
<path d="M3.125 15C3.125 9.40207 3.125 6.60311 4.86405 4.86405C6.60311 3.125 9.40207 3.125 15 3.125C20.5979 3.125 23.3969 3.125 25.136 4.86405C26.875 6.60311 26.875 9.40207 26.875 15C26.875 20.5979 26.875 23.3969 25.136 25.136C23.3969 26.875 20.5979 26.875 15 26.875C9.40207 26.875 6.60311 26.875 4.86405 25.136C3.125 23.3969 3.125 20.5979 3.125 15Z" stroke="#E0E0E0" stroke-width="1.875"/>
<path d="M16.2291 13.7709C15.5106 13.0524 15.6301 10 15.6301 10M16.2291 13.7709C16.9476 14.4894 20 14.3698 20 14.3698M16.2291 13.7709L21.25 8.75M13.7664 16.2335C13.0479 15.515 9.99551 15.6346 9.99551 15.6346M13.7664 16.2335C14.4849 16.952 14.3652 20.0044 14.3652 20.0044M13.7664 16.2335L8.75 21.2499" stroke="#E0E0E0" stroke-width="1.875" stroke-linecap="round" stroke-linejoin="round"/>
</svg>
