<svg width="32" height="31" viewBox="0 0 32 31" fill="none" xmlns="http://www.w3.org/2000/svg">
<path d="M5.66666 9.0415V27.1248" stroke="#03DAC6" stroke-width="1.9375" stroke-linecap="round" stroke-linejoin="round"/>
<path d="M15.6869 5.04867C11.4176 2.87392 8.05785 4.14811 6.38258 5.4498C6.08061 5.68443 5.92961 5.80174 5.79814 6.07041C5.66666 6.33907 5.66666 6.58928 5.66666 7.0897V19.0287C6.91919 17.6108 10.6768 15.4132 15.6869 17.9653C20.1643 20.2461 23.9749 19.3006 25.7775 18.3152C26.0276 18.1785 26.1526 18.1101 26.243 17.9578C26.3333 17.8055 26.3333 17.6402 26.3333 17.3095V7.58711C26.3333 6.51695 26.3333 5.98188 26.0785 5.78804C25.8235 5.5942 25.2271 5.75954 24.0344 6.09026C21.9933 6.65621 19.0255 6.74937 15.6869 5.04867Z" stroke="#03DAC6" stroke-width="1.9375" stroke-linecap="round" stroke-linejoin="round"/>
</svg>
