<svg width="30" height="30" viewBox="0 0 30 30" fill="none" xmlns="http://www.w3.org/2000/svg">
<path d="M15 6.25L16.3799 4.31824C16.8936 3.59889 17.1506 3.23921 16.9884 2.90514C16.8261 2.57105 16.4139 2.55191 15.5893 2.51365C15.394 2.50459 15.1975 2.5 15 2.5C8.0965 2.5 2.5 8.09644 2.5 15C2.5 21.9035 8.0965 27.5 15 27.5C21.9036 27.5 27.5 21.9035 27.5 15C27.5 10.9104 25.5361 7.2796 22.5 4.99909" stroke="#E0E0E0" stroke-width="1.875" stroke-linecap="round" stroke-linejoin="round"/>
<path d="M9.99023 13.755C10.6502 13.23 11.2502 12.3642 11.6252 12.525C12.0002 12.6857 11.8802 13.215 11.8802 14.04C11.8802 14.865 11.8802 18.3558 11.8802 20.01" stroke="#E0E0E0" stroke-width="1.875" stroke-linecap="round"/>
<path d="M20.0027 15.7501C20.0027 14.0251 20.0852 13.5601 19.7552 13.0051C19.4252 12.4501 18.6002 12.4981 17.7752 12.4981C16.9502 12.4981 16.3502 12.4501 15.9527 12.9001C15.4652 13.4251 15.6752 14.4001 15.6152 15.7501C15.7502 17.5501 15.3827 18.9751 15.9452 19.5751C16.3502 20.0701 17.0691 19.9951 17.9252 20.0101C18.7751 19.9997 19.2902 20.0401 19.7102 19.5601C20.1752 19.1401 19.9502 17.4751 20.0027 15.7501Z" stroke="#E0E0E0" stroke-width="1.875" stroke-linecap="round"/>
</svg>
