<svg width="35" height="35" viewBox="0 0 35 35" fill="none" xmlns="http://www.w3.org/2000/svg">
<path d="M3.646 17.5002C3.646 10.9692 3.646 7.70379 5.67489 5.67489C7.70379 3.646 10.9692 3.646 17.5002 3.646C24.031 3.646 27.2965 3.646 29.3255 5.67489C31.3543 7.70379 31.3543 10.9692 31.3543 17.5002C31.3543 24.031 31.3543 27.2965 29.3255 29.3255C27.2965 31.3543 24.031 31.3543 17.5002 31.3543C10.9692 31.3543 7.70379 31.3543 5.67489 29.3255C3.646 27.2965 3.646 24.031 3.646 17.5002Z" stroke="#E0E0E0" stroke-width="2" stroke-linejoin="round"/>
<path d="M24.0625 17.5C24.0625 21.1244 21.1244 24.0625 17.5 24.0625C13.8756 24.0625 10.9375 21.1244 10.9375 17.5C10.9375 13.8756 13.8756 10.9375 17.5 10.9375C21.1244 10.9375 24.0625 13.8756 24.0625 17.5Z" stroke="#E0E0E0" stroke-width="2"/>
<path d="M25.528 9.479H25.519" stroke="#E0E0E0" stroke-width="2" stroke-linecap="round" stroke-linejoin="round"/>
</svg>
