<svg width="35" height="31" viewBox="0 0 35 31" fill="none" xmlns="http://www.w3.org/2000/svg">
<rect x="0.625" y="0.5" width="15.5428" height="15" fill="#03DAC6"/>
<path d="M15.4307 3.84277V6.28563H5.3323V7.37849H13.5922V9.5642H5.3323V12.0713H2.00171V3.84277H15.4307Z" fill="#121212"/>
<path d="M10.0705 18.7529V20.6815H6.68665V18.7529H10.0705ZM6.7799 22.0572H9.97727V28.3572H6.7799V22.0572Z" fill="#E0E0E0"/>
<rect x="16.1677" y="15.5" width="18.2073" height="15" fill="#03DAC6"/>
<path d="M27.1365 18.8428C28.3356 18.8428 29.3259 18.9542 30.1074 19.1771C30.889 19.3999 31.5018 19.7042 31.9459 20.0899C32.39 20.4756 32.7009 20.9171 32.8785 21.4142C33.065 21.9028 33.1583 22.4171 33.1583 22.9571C33.1583 23.4971 33.0561 24.0156 32.8518 24.5128C32.6476 25.0013 32.3101 25.4385 31.8393 25.8242C31.3775 26.2099 30.7602 26.5142 29.9875 26.7371C29.2237 26.9599 28.2734 27.0713 27.1365 27.0713H17.5444V18.8428H27.1365ZM20.875 24.4999H27.0033C27.5007 24.4999 27.9226 24.4699 28.2689 24.4099C28.6153 24.3413 28.8907 24.2428 29.0949 24.1142C29.3081 23.9856 29.4591 23.8271 29.5479 23.6385C29.6456 23.4413 29.6944 23.2142 29.6944 22.9571C29.6944 22.6999 29.6456 22.4771 29.5479 22.2885C29.4591 22.0913 29.3081 21.9285 29.0949 21.7999C28.8907 21.6713 28.6153 21.5771 28.2689 21.5171C27.9226 21.4485 27.5007 21.4142 27.0033 21.4142H20.875V24.4999Z" fill="#121212"/>
<path d="M25.1825 12.2643C23.7703 12.2643 22.5935 12.1529 21.6521 11.93C20.7195 11.7072 20.0179 11.3515 19.5471 10.8629C19.0853 10.3743 18.8544 9.73147 18.8544 8.93433C18.8544 8.13718 19.0853 7.49433 19.5471 7.00576C20.0179 6.50861 20.7195 6.14861 21.6521 5.92576C22.5935 5.69433 23.7703 5.57861 25.1825 5.57861C26.5858 5.57861 27.7493 5.69433 28.673 5.92576C29.6055 6.14861 30.3027 6.50861 30.7646 7.00576C31.2264 7.49433 31.4573 8.13718 31.4573 8.93433C31.4573 9.73147 31.2264 10.3743 30.7646 10.8629C30.3027 11.3515 29.6055 11.7072 28.673 11.93C27.7493 12.1529 26.5858 12.2643 25.1825 12.2643ZM25.1825 10.4C25.8397 10.4 26.3904 10.3486 26.8345 10.2458C27.2786 10.1343 27.6161 9.97147 27.847 9.75718C28.0779 9.53433 28.1934 9.26004 28.1934 8.93433C28.1934 8.60861 28.0779 8.33433 27.847 8.11147C27.6249 7.88861 27.2919 7.72147 26.8478 7.61004C26.4037 7.49861 25.8486 7.4429 25.1825 7.4429C24.5253 7.4429 23.9657 7.49861 23.5039 7.61004C23.0509 7.72147 22.7045 7.88861 22.4647 8.11147C22.2338 8.32575 22.1184 8.60004 22.1184 8.93433C22.1184 9.26004 22.2338 9.53433 22.4647 9.75718C22.6957 9.97147 23.0376 10.1343 23.4906 10.2458C23.9524 10.3486 24.5164 10.4 25.1825 10.4Z" fill="#E0E0E0"/>
</svg>
