<svg width="30" height="30" viewBox="0 0 30 30" fill="none" xmlns="http://www.w3.org/2000/svg">
<path d="M15 27.5C21.9036 27.5 27.5 21.9036 27.5 15C27.5 8.09644 21.9036 2.5 15 2.5C8.09644 2.5 2.5 8.09644 2.5 15C2.5 21.9036 8.09644 27.5 15 27.5Z" stroke="#E0E0E0" stroke-width="1.5"/>
<path d="M19.9316 15.4935C19.7108 16.2769 18.6666 16.8305 16.5786 17.9377C14.56 19.008 13.5508 19.5432 12.7374 19.3281C12.4011 19.2391 12.0947 19.0702 11.8476 18.8376C11.25 18.2747 11.25 17.1831 11.25 15C11.25 12.8169 11.25 11.7252 11.8476 11.1624C12.0947 10.9298 12.4011 10.7608 12.7374 10.6719C13.5508 10.4568 14.56 10.992 16.5786 12.0623C18.6666 13.1695 19.7108 13.7231 19.9316 14.5065C20.0228 14.8299 20.0228 15.1701 19.9316 15.4935Z" stroke="#E0E0E0" stroke-width="1.5" stroke-linejoin="round"/>
</svg>
