<svg width="30" height="30" viewBox="0 0 30 30" fill="none" xmlns="http://www.w3.org/2000/svg">
<path d="M23.6686 17.4316L22.8308 12.871C22.4689 10.9012 22.2879 9.91629 21.5713 9.33314C20.8546 8.75 19.8252 8.75 17.7665 8.75H12.2336C10.1747 8.75 9.14535 8.75 8.42872 9.33314C7.7121 9.91629 7.53115 10.9012 7.16922 12.871L6.33132 17.4316C5.5801 21.5203 5.20449 23.5646 6.36111 24.9074C7.51774 26.25 9.65444 26.25 13.9279 26.25H16.0721C20.3456 26.25 22.4823 26.25 23.6389 24.9074C24.7955 23.5646 24.4199 21.5203 23.6686 17.4316Z" stroke="#E0E0E0" stroke-width="1.875" stroke-linecap="round"/>
<path d="M15 13.125V21.25M11.875 18.75L15 21.875L18.125 18.75" stroke="#E0E0E0" stroke-width="1.875" stroke-linecap="round" stroke-linejoin="round"/>
<path d="M26.25 13.75C26.446 13.6511 26.6164 13.5265 26.7677 13.3694C27.5 12.6094 27.5 11.3862 27.5 8.9397C27.5 6.49325 27.5 5.27003 26.7677 4.51001C26.0355 3.75 24.857 3.75 22.5 3.75H7.5C5.14298 3.75 3.96446 3.75 3.23224 4.51001C2.5 5.27003 2.5 6.49325 2.5 8.9397C2.5 11.3862 2.5 12.6094 3.23224 13.3694C3.3836 13.5265 3.55402 13.6511 3.75 13.75" stroke="#E0E0E0" stroke-width="1.875" stroke-linecap="round"/>
</svg>
