<svg width="35" height="35" viewBox="0 0 35 35" fill="none" xmlns="http://www.w3.org/2000/svg">
<path d="M17.4785 22.4704L22.2056 27.8448C23.9569 29.8359 24.8326 30.8315 25.7492 30.5891C26.6658 30.3468 26.9802 29.0366 27.6087 26.416L31.0957 11.8794C32.0639 7.84338 32.5479 5.82537 31.4718 4.83C30.3959 3.83464 28.5307 4.57515 24.8004 6.05619L7.49386 12.9274C4.51036 14.1119 3.0186 14.7042 2.9239 15.722C2.9142 15.8261 2.91404 15.931 2.92342 16.0351C3.015 17.0533 4.50494 17.6506 7.48481 18.845C8.83498 19.3862 9.51007 19.6569 9.99409 20.1752C10.0485 20.2334 10.1008 20.2937 10.151 20.356C10.5969 20.9102 10.7873 21.6374 11.1679 23.0918L11.8802 25.814C12.2506 27.2293 12.4358 27.937 12.9208 28.0335C13.4058 28.1299 13.8281 27.5431 14.6727 26.3694L17.4785 22.4704ZM17.4785 22.4704L17.0151 21.9874C16.4876 21.4376 16.2239 21.1629 16.2239 20.8214C16.2239 20.4798 16.4876 20.2049 17.0151 19.6551L22.2257 14.2247" stroke="#E0E0E0" stroke-width="2" stroke-linecap="round" stroke-linejoin="round"/>
</svg>
