<svg width="35" height="35" viewBox="0 0 35 35" fill="none" xmlns="http://www.w3.org/2000/svg">
<path d="M23.3333 10.2085V16.0418M17.5 10.2085V16.0418" stroke="#E0E0E0" stroke-width="2" stroke-linecap="round" stroke-linejoin="round"/>
<path d="M23.3335 4.375H11.6668C8.91697 4.375 7.54204 4.375 6.68777 5.22605C5.8335 6.07711 5.8335 7.44685 5.8335 10.1863V19.775C5.8335 20.3149 5.8335 20.5848 5.8694 20.8107C6.06708 22.0541 7.04588 23.0291 8.29389 23.2261C8.52062 23.2619 8.79158 23.2619 9.3335 23.2619C9.46898 23.2619 9.53672 23.2619 9.5934 23.2708C9.9054 23.3201 10.1501 23.5637 10.1995 23.8747C10.2085 23.9311 10.2085 23.9986 10.2085 24.1335V26.3843C10.2085 28.1082 10.2085 28.9702 10.6963 29.1407C11.1841 29.3112 11.7246 28.638 12.8056 27.2918L15.604 23.8071C15.8191 23.5392 15.9266 23.4052 16.0764 23.3336C16.2262 23.2619 16.3984 23.2619 16.7427 23.2619H22.3755C23.5677 23.2619 24.1639 23.2619 24.6998 23.0406C25.2359 22.8196 25.6574 22.3996 26.5004 21.5597L27.4582 20.6055C28.3013 19.7657 28.7228 19.3457 28.9449 18.8118C29.1668 18.2777 29.1668 17.6839 29.1668 16.4962V10.1863C29.1668 7.44685 29.1668 6.07711 28.3125 5.22605C27.4582 4.375 26.0833 4.375 23.3335 4.375Z" stroke="#E0E0E0" stroke-width="2" stroke-linecap="round" stroke-linejoin="round"/>
</svg>
