<svg width="32" height="31" viewBox="0 0 32 31" fill="none" xmlns="http://www.w3.org/2000/svg">
<path d="M25.0077 19.4028C25.0152 19.3657 25.0681 19.3657 25.0756 19.4028C25.4682 21.323 26.9687 22.8235 28.8889 23.2161C28.926 23.2236 28.926 23.2765 28.8889 23.284C26.9687 23.6765 25.4682 25.1771 25.0756 27.0973C25.0681 27.1343 25.0152 27.1343 25.0077 27.0973C24.6151 25.1771 23.1146 23.6765 21.1944 23.284C21.1574 23.2765 21.1574 23.2236 21.1944 23.2161C23.1146 22.8235 24.6151 21.323 25.0077 19.4028Z" stroke="#03DAC6" stroke-width="1.5"/>
<path d="M19.4189 16.3687C20.3767 15.6976 20.8555 15.3621 21.0472 14.8744C21.2065 14.4692 21.2065 13.9471 21.0472 13.5419C20.8555 13.0542 20.3767 12.7187 19.4189 12.0476C18.7479 11.5774 18.053 11.1109 17.4424 10.742C16.9337 10.4346 16.3344 10.1047 15.7325 9.78788C14.7148 9.2522 14.206 8.98436 13.7134 9.05173C13.3049 9.10757 12.8778 9.36748 12.6265 9.71304C12.3234 10.1299 12.2856 10.7294 12.21 11.9283C12.1602 12.7169 12.125 13.5185 12.125 14.2082C12.125 14.8978 12.1602 15.6994 12.21 16.488C12.2856 17.6869 12.3234 18.2863 12.6265 18.7033C12.8778 19.0488 13.3049 19.3088 13.7134 19.3646C14.206 19.4319 14.7148 19.1642 15.7325 18.6284C16.3344 18.3115 16.9337 17.9818 17.4424 17.6744C18.053 17.3053 18.7479 16.8389 19.4189 16.3687Z" stroke="#03DAC6" stroke-width="1.5" stroke-linecap="round"/>
<path d="M28.7513 19.1628C28.9167 17.9835 28.9167 16.4402 28.9167 14.2083C28.9167 10.5913 28.9167 8.78283 28.2127 7.40131C27.5936 6.1861 26.6056 5.19809 25.3904 4.57892C24.0089 3.875 22.2004 3.875 18.5833 3.875H13.4167C9.79968 3.875 7.99117 3.875 6.60966 4.57892C5.39445 5.19809 4.40644 6.1861 3.78726 7.40131C3.08334 8.78283 3.08334 10.5913 3.08334 14.2083C3.08334 17.8254 3.08334 19.6338 3.78726 21.0154C4.40644 22.2306 5.39445 23.2186 6.60966 23.8377C7.99117 24.5417 9.79968 24.5417 13.4167 24.5417H17.8415" stroke="#03DAC6" stroke-width="1.5" stroke-linecap="round" stroke-linejoin="round"/>
</svg>
