<svg width="35" height="35" viewBox="0 0 35 35" fill="none" xmlns="http://www.w3.org/2000/svg">
<path d="M17.4998 29.8957C20.139 29.8957 22.6698 29.6349 25.0152 29.1569C27.9449 28.5597 29.4098 28.261 30.7465 26.5424C32.0832 24.8237 32.0832 22.8509 32.0832 18.9049V16.0947C32.0832 12.1488 32.0832 10.1759 30.7465 8.45725C29.4098 6.73862 27.9449 6.44003 25.0152 5.84282C22.6698 5.36471 20.139 5.104 17.4998 5.104C14.8607 5.104 12.3299 5.36471 9.9844 5.84282C7.05476 6.44003 5.58993 6.73862 4.25321 8.45725C2.9165 10.1759 2.9165 12.1488 2.9165 16.0947V18.9049C2.9165 22.8509 2.9165 24.8237 4.25321 26.5424C5.58993 28.261 7.05476 28.5597 9.9844 29.1569C12.3299 29.6349 14.8607 29.8957 17.4998 29.8957Z" stroke="#E0E0E0" stroke-width="2"/>
<path d="M23.2781 17.9565C23.0616 18.8399 21.9101 19.4745 19.6071 20.7436C17.1022 22.1238 15.8497 22.814 14.8353 22.5482C14.4917 22.4581 14.1753 22.2997 13.9096 22.0849C13.125 21.4506 13.125 20.1338 13.125 17.5002C13.125 14.8666 13.125 13.5497 13.9096 12.9154C14.1753 12.7006 14.4917 12.5422 14.8353 12.4522C15.8497 12.1863 17.1022 12.8764 19.6071 14.2567C21.9101 15.5259 23.0616 16.1604 23.2781 17.0438C23.3517 17.3446 23.3517 17.6558 23.2781 17.9565Z" stroke="#E0E0E0" stroke-width="2" stroke-linejoin="round"/>
</svg>
